# xmcd
# 
# Track frame offsets:
#     183
#     14210
#     20023
#     27310
#     35093
#     49725
#     65198
#     81378
#     96250
#     104570
#     112383
#     121003
#     135333
#     143548
#     146918
#     150085
#     161438
#     167135
# 
# Disc length: 2339
# 
# Revision: 8
# Processed by: cddbd v1.5.2PL0 Copyright (c) Steve Scherf et al.
# Submitted via: fre:ac v1.0.31
# 
DISCID=02092112
DTITLE=James Last - In Scotland
DYEAR=1984
DGENRE=Instrumental Pop
TTITLE0=The Sky Boat Song
TTITLE1=My Love is Like a Red Red Rose
TTITLE2=I Love a Lassie
TTITLE3=Roamin' in the Golamin'
TTITLE4=A Scottish Soldier
TTITLE5=Will Ye No Come Back Agaig
TTITLE6=I Belong to Glasgow
TTITLE7=Flower of Scotland
TTITLE8=Scotland The Brave
TTITLE9=The Bluebells of Scotland
TTITLE10=Auld Lang Syne
TTITLE11=Ye Banks and Braes O Bonnie Doon
TTITLE12=Days of Lang Sune
TTITLE13=The Keel Row
TTITLE14=The Barren Rocks of Aden
TTITLE15=Loch Lomond
TTITLE16=My Bonnie Mary of Argyle
TTITLE17=Annie Laurie
EXTD=
EXTT0=
EXTT1=
EXTT2=
EXTT3=
EXTT4=
EXTT5=
EXTT6=
EXTT7=
EXTT8=
EXTT9=
EXTT10=
EXTT11=
EXTT12=
EXTT13=
EXTT14=
EXTT15=
EXTT16=
EXTT17=
PLAYORDER=
